<svg width="108" height="51" viewBox="0 0 108 51" fill="none" xmlns="http://www.w3.org/2000/svg">
<rect width="108" height="51" rx="25.5" fill="#14D87A"/>
<path d="M33.216 34.288C31.536 34.288 30.088 33.928 28.872 33.208C27.656 32.472 26.72 31.456 26.064 30.16C25.408 28.848 25.08 27.336 25.08 25.624C25.08 23.912 25.408 22.4 26.064 21.088C26.72 19.776 27.656 18.752 28.872 18.016C30.088 17.28 31.536 16.912 33.216 16.912C35.248 16.912 36.92 17.424 38.232 18.448C39.544 19.472 40.36 20.912 40.68 22.768H36.984C36.792 21.872 36.368 21.184 35.712 20.704C35.072 20.208 34.224 19.96 33.168 19.96C32.192 19.96 31.352 20.192 30.648 20.656C29.96 21.104 29.432 21.752 29.064 22.6C28.696 23.448 28.512 24.456 28.512 25.624C28.512 26.792 28.696 27.8 29.064 28.648C29.432 29.48 29.96 30.128 30.648 30.592C31.352 31.04 32.192 31.264 33.168 31.264C34.224 31.264 35.072 31.04 35.712 30.592C36.352 30.128 36.776 29.488 36.984 28.672H40.68C40.36 30.416 39.544 31.792 38.232 32.8C36.92 33.792 35.248 34.288 33.216 34.288ZM42.8696 34V21.904H45.8456L46.1576 24.136C46.4616 23.608 46.8296 23.16 47.2616 22.792C47.6936 22.424 48.1976 22.136 48.7736 21.928C49.3496 21.72 49.9736 21.616 50.6456 21.616V25.168H49.5176C49.0376 25.168 48.5896 25.224 48.1736 25.336C47.7736 25.448 47.4216 25.632 47.1176 25.888C46.8296 26.128 46.6056 26.464 46.4456 26.896C46.3016 27.312 46.2296 27.84 46.2296 28.48V34H42.8696ZM56.3837 34.288C55.3917 34.288 54.5597 34.128 53.8877 33.808C53.2317 33.472 52.7437 33.032 52.4237 32.488C52.1197 31.928 51.9677 31.312 51.9677 30.64C51.9677 29.92 52.1517 29.28 52.5197 28.72C52.8877 28.16 53.4557 27.72 54.2237 27.4C54.9917 27.08 55.9517 26.92 57.1037 26.92H60.0797C60.0797 26.344 59.9997 25.872 59.8397 25.504C59.6957 25.12 59.4557 24.832 59.1197 24.64C58.7997 24.448 58.3677 24.352 57.8237 24.352C57.2317 24.352 56.7277 24.48 56.3117 24.736C55.9117 24.992 55.6637 25.376 55.5677 25.888H52.3037C52.3997 25.024 52.6877 24.28 53.1677 23.656C53.6477 23.016 54.2877 22.52 55.0877 22.168C55.9037 21.8 56.8237 21.616 57.8477 21.616C58.9837 21.616 59.9677 21.808 60.7997 22.192C61.6477 22.576 62.2957 23.128 62.7437 23.848C63.2077 24.568 63.4397 25.456 63.4397 26.512V34H60.6077L60.2237 32.176C60.0637 32.496 59.8557 32.784 59.5997 33.04C59.3597 33.296 59.0797 33.52 58.7597 33.712C58.4397 33.888 58.0797 34.024 57.6797 34.12C57.2957 34.232 56.8637 34.288 56.3837 34.288ZM57.1997 31.696C57.5997 31.696 57.9597 31.632 58.2797 31.504C58.5997 31.36 58.8717 31.16 59.0957 30.904C59.3197 30.648 59.5037 30.36 59.6477 30.04C59.7917 29.704 59.8877 29.344 59.9357 28.96V28.936H57.5117C57.0477 28.936 56.6637 29 56.3597 29.128C56.0717 29.24 55.8557 29.408 55.7117 29.632C55.5677 29.84 55.4957 30.08 55.4957 30.352C55.4957 30.64 55.5677 30.888 55.7117 31.096C55.8557 31.304 56.0557 31.456 56.3117 31.552C56.5677 31.648 56.8637 31.696 57.1997 31.696ZM66.5079 34V20.896C66.5079 19.872 66.6839 19.056 67.0359 18.448C67.3879 17.84 67.8759 17.4 68.4999 17.128C69.1399 16.856 69.8919 16.72 70.7559 16.72H72.2679V19.576H71.2839C70.7719 19.576 70.4039 19.68 70.1799 19.888C69.9719 20.08 69.8679 20.416 69.8679 20.896V34H66.5079ZM64.8759 24.712V21.904H72.4359V24.712H64.8759ZM79.9965 34C79.1325 34 78.3725 33.864 77.7165 33.592C77.0765 33.32 76.5805 32.872 76.2285 32.248C75.8765 31.624 75.7005 30.776 75.7005 29.704V24.712H73.6125V21.904H75.7005L76.0605 18.568H79.0605V21.904H82.2045V24.712H79.0605V29.728C79.0605 30.256 79.1725 30.624 79.3965 30.832C79.6365 31.04 80.0365 31.144 80.5965 31.144H82.1805V34H79.9965Z" fill="#0A6E3E"/>
</svg>
